<svg width="84" height="84" viewBox="0 0 84 84" fill="none" xmlns="http://www.w3.org/2000/svg">
<g id="Tech Icons" clip-path="url(#clip0_119_366)">
<path id="Vector" d="M24.0143 35.3062C24.0143 36.3208 24.1243 37.1433 24.3161 37.7465C24.5596 38.4252 24.8527 39.0849 25.1932 39.7205C25.3304 39.9398 25.385 40.159 25.385 40.3512C25.385 40.6251 25.2207 40.8994 24.8643 41.1737L23.1371 42.3251C22.8903 42.4897 22.6436 42.5719 22.4239 42.5719C22.15 42.5719 21.8757 42.4348 21.6014 42.188C21.2321 41.791 20.9016 41.3595 20.6146 40.8994C20.3404 40.4336 20.0661 39.9123 19.7646 39.2819C17.6261 41.804 14.939 43.0655 11.7039 43.0655C9.40106 43.0655 7.56393 42.4073 6.22037 41.0915C4.87714 39.7751 4.19177 38.0205 4.19177 35.8272C4.19177 33.4969 5.01427 31.6051 6.68677 30.1794C8.35894 28.7537 10.58 28.0408 13.4039 28.0408C14.3361 28.0408 15.2957 28.123 16.31 28.2601C17.3246 28.3972 18.3664 28.6165 19.4632 28.8633V26.8619C19.4632 24.778 19.0243 23.3251 18.1743 22.4751C17.2971 21.6251 15.8164 21.2137 13.7054 21.2137C12.7457 21.2137 11.7589 21.3237 10.7443 21.5704C9.72999 21.8169 8.74286 22.1187 7.78322 22.5026C7.34464 22.6944 7.01571 22.804 6.82358 22.859C6.63179 22.914 6.49465 22.9412 6.385 22.9412C6.00108 22.9412 5.80928 22.6669 5.80928 22.0912V20.7476C5.80928 20.309 5.86427 19.9801 6.00108 19.7883C6.13822 19.5962 6.385 19.4044 6.76892 19.2126C7.72856 18.719 8.88 18.3076 10.2232 17.9787C11.5671 17.6222 12.9928 17.4579 14.5007 17.4579C17.7635 17.4579 20.1489 18.198 21.6842 19.6787C23.1921 21.159 23.9599 23.4072 23.9599 26.4233V35.3062H24.0149H24.0143ZM12.8829 39.4737C13.7878 39.4737 14.72 39.3094 15.7068 38.9801C16.6939 38.6512 17.5714 38.048 18.3114 37.2255C18.7503 36.7047 19.0793 36.129 19.2436 35.4708C19.4082 34.8129 19.5179 34.0176 19.5179 33.0855V31.934C18.6864 31.7317 17.8442 31.5761 16.9954 31.468C16.1406 31.3594 15.2799 31.3044 14.4182 31.3033C12.5811 31.3033 11.2379 31.6598 10.3332 32.4001C9.42823 33.1405 8.98964 34.1822 8.98964 35.553C8.98964 36.8415 9.31858 37.8012 10.0039 38.4594C10.6621 39.1447 11.6218 39.4737 12.8829 39.4737ZM34.8989 42.4348C34.4054 42.4348 34.0764 42.3526 33.8571 42.1605C33.6378 41.9962 33.4457 41.6122 33.2814 41.0915L26.8385 19.898C26.6736 19.3494 26.5914 18.993 26.5914 18.8012C26.5914 18.3626 26.8107 18.1155 27.2496 18.1155H29.9364C30.4572 18.1155 30.8139 18.198 31.0057 18.3898C31.225 18.5544 31.3896 18.9383 31.5539 19.459L36.16 37.6094L40.4371 19.459C40.5743 18.9108 40.7389 18.5544 40.9579 18.3898C41.1775 18.2255 41.5614 18.1158 42.055 18.1158H44.2482C44.7689 18.1158 45.1257 18.198 45.3447 18.3898C45.5643 18.5544 45.7561 18.9383 45.8657 19.459L50.1978 37.8287L54.9407 19.459C55.105 18.9108 55.2972 18.5544 55.489 18.3898C55.7082 18.2255 56.0647 18.1158 56.5582 18.1158H59.1079C59.5468 18.1158 59.7936 18.3351 59.7936 18.8012C59.7936 18.9383 59.7661 19.0754 59.7386 19.2398C59.7111 19.4044 59.6565 19.6237 59.5468 19.9254L52.939 41.1187C52.7747 41.6672 52.5829 42.0237 52.3633 42.188C52.144 42.3526 51.7875 42.4622 51.3218 42.4622H48.9639C48.4429 42.4622 48.0864 42.3801 47.8668 42.188C47.6475 41.9962 47.4557 41.6397 47.3461 41.0915L43.0961 23.4072L38.874 41.0637C38.7372 41.6122 38.5725 41.9687 38.3532 42.1605C38.1339 42.3526 37.75 42.4348 37.2568 42.4348H34.8986H34.8989ZM70.13 43.1751C68.7043 43.1751 67.2786 43.0105 65.9078 42.6815C64.5368 42.3526 63.4678 41.9958 62.755 41.5851C62.3161 41.338 62.0143 41.064 61.905 40.8172C61.7982 40.5752 61.7422 40.3139 61.7404 40.0494V38.6512C61.7404 38.0755 61.9596 37.8012 62.3711 37.8012C62.539 37.8018 62.7056 37.8297 62.8646 37.8837C63.0289 37.9386 63.2757 38.048 63.55 38.1576C64.5184 38.5836 65.5293 38.9052 66.5657 39.1173C67.6397 39.3352 68.7327 39.4454 69.8286 39.4462C71.5557 39.4462 72.8993 39.1447 73.8314 38.5415C74.7636 37.9383 75.2571 37.0612 75.2571 35.9369C75.2571 35.1694 75.0104 34.5387 74.5168 34.0176C74.0232 33.4969 73.0911 33.0308 71.7478 32.5919L67.7721 31.3583C65.7707 30.7276 64.2903 29.7955 63.3854 28.5615C62.4807 27.3551 62.0146 26.0119 62.0146 24.5862C62.0146 23.4347 62.2614 22.4201 62.755 21.5426C63.2482 20.6655 63.9064 19.898 64.7289 19.2947C65.5514 18.664 66.4836 18.198 67.5803 17.869C68.6768 17.5401 69.8282 17.403 71.0347 17.403C71.6379 17.403 72.2686 17.4304 72.8718 17.5126C73.5025 17.5948 74.0782 17.7044 74.6539 17.814C75.2021 17.9512 75.7232 18.0883 76.2168 18.2529C76.7103 18.4173 77.0939 18.5819 77.3682 18.7462C77.7521 18.9658 78.0261 19.1851 78.1907 19.4319C78.3553 19.6512 78.4375 19.9526 78.4375 20.3365V21.6251C78.4375 22.2008 78.2182 22.5026 77.8068 22.5026C77.5875 22.5026 77.2311 22.3926 76.7653 22.1733C75.2021 21.4605 73.4475 21.104 71.5011 21.104C69.9382 21.104 68.7043 21.3508 67.8543 21.8719C67.0046 22.3926 66.5657 23.188 66.5657 24.3119C66.5657 25.0797 66.84 25.7376 67.3882 26.2587C67.9368 26.7794 68.9511 27.3005 70.4043 27.7665L74.2975 29.0005C76.2714 29.6312 77.6971 30.5083 78.5471 31.6323C79.3971 32.7565 79.8085 34.0451 79.8085 35.4708C79.8085 36.6497 79.5614 37.719 79.0954 38.6512C78.6021 39.5833 77.9439 40.4058 77.0939 41.064C76.2439 41.7494 75.2296 42.243 74.0507 42.5994C72.8168 42.9833 71.5282 43.1751 70.13 43.1751Z" fill="#252F3E"/>
<path id="Vector_2" d="M75.3118 56.4997C66.2918 63.1622 53.1861 66.699 41.9178 66.699C26.1254 66.699 11.8961 60.859 1.14855 51.1533C0.298552 50.3858 1.06607 49.344 2.08037 49.9469C13.7054 56.6918 28.0446 60.7768 42.8775 60.7768C52.8846 60.7768 63.8789 58.6932 73.9961 54.4161C75.5039 53.7304 76.7925 55.4032 75.3118 56.4997ZM79.0682 52.2226C77.9168 50.7422 71.4461 51.5097 68.5125 51.8661C67.635 51.9761 67.4979 51.2083 68.2932 50.6325C73.4475 47.0133 81.9196 48.0554 82.9064 49.2615C83.8936 50.4954 82.6322 58.9672 77.8068 63.025C77.0668 63.6558 76.3539 63.3268 76.6828 62.5043C77.7793 59.7897 80.2196 53.6758 79.0682 52.2226Z" fill="#FF9900"/>
</g>
<defs>
<clipPath id="clip0_119_366">
<rect width="82.8" height="82.8" fill="white" transform="translate(0.600006 0.575439)"/>
</clipPath>
</defs>
</svg>
