<svg width="84" height="84" viewBox="0 0 84 84" fill="none" xmlns="http://www.w3.org/2000/svg">
<g id="Tech Icons" clip-path="url(#clip0_119_305)">
<path id="Vector" d="M23.3373 35.334L23.9667 35.7897C25.0616 36.6727 25.691 37.6697 25.8278 38.809C27.0046 38.5812 28.5097 38.7521 29.1666 39.2078L29.7687 39.5782L29.6592 39.8062C29.4676 40.2333 29.4129 40.3473 29.3856 40.4042C28.3182 42.5405 26.2109 42.569 25.2257 42.5405C22.7352 48.7785 17.426 52.225 10.2554 52.225C6.94404 52.225 4.42624 51.1711 2.72933 49.0917C0.485319 46.3576 0.485319 42.7968 0.676794 41.6575L0.731617 41.4295H20.5184C21.5582 41.4295 22.3521 41.1449 22.7352 40.9169C22.3246 40.2902 22.1878 39.5782 22.1605 39.1794C22.0783 38.0401 22.3521 36.8437 22.8995 35.9891L23.3373 35.334ZM40.4818 36.6567C40.7027 36.6567 40.8895 36.7306 41.0426 36.8787C41.1956 37.0267 41.2722 37.2135 41.2722 37.4394V44.4844C41.2722 45.6585 40.8607 46.6521 40.0377 47.4649C39.2048 48.2878 38.2112 48.6993 37.0572 48.6993C35.8932 48.6993 34.8996 48.2878 34.0767 47.4649C33.2537 46.642 32.8423 45.6484 32.8423 44.4844C32.8423 43.3202 33.2537 42.3267 34.0767 41.5039C34.8996 40.6808 35.8932 40.2695 37.0572 40.2695C38.0558 40.2695 38.9364 40.5781 39.699 41.1952V37.4394C39.699 37.2137 39.7731 37.0267 39.9211 36.8787C40.0691 36.7306 40.256 36.6567 40.4818 36.6567ZM46.3829 40.2695C47.5371 40.2695 48.5305 40.6809 49.3634 41.5037C49.7749 41.9153 50.0824 42.3694 50.2855 42.8661C50.4888 43.3629 50.5927 43.9024 50.5979 44.4844C50.5979 45.6585 50.1863 46.6521 49.3635 47.4649C48.5307 48.2878 47.5371 48.6993 46.383 48.6993C45.2188 48.6993 44.2254 48.2878 43.4026 47.4649C42.5794 46.642 42.168 45.6484 42.168 44.4844C42.168 43.3202 42.5796 42.3267 43.4024 41.5039C44.2254 40.6808 45.2188 40.2695 46.3829 40.2695ZM55.6937 40.2695C56.7524 40.2695 57.6683 40.6107 58.4409 41.2932C58.6216 41.4536 58.7118 41.6519 58.7118 41.8877C58.7118 42.1134 58.6378 42.3017 58.4898 42.4521C58.3418 42.6026 58.1549 42.678 57.9291 42.678C57.7426 42.6795 57.5615 42.6156 57.4173 42.4973C57.1614 42.2816 56.893 42.1184 56.6119 42.0081C56.3308 41.8977 56.0249 41.8425 55.6937 41.8425C55.3274 41.8425 54.9837 41.9114 54.6625 42.0495C54.3484 42.1828 54.0624 42.3743 53.8195 42.6139C53.5774 42.8542 53.3844 43.1392 53.2512 43.4533C53.1133 43.7743 53.0442 44.1179 53.0442 44.4844C53.0442 44.8507 53.1133 45.1943 53.2512 45.5155C53.3844 45.8295 53.5774 46.1146 53.8195 46.3548C54.0624 46.5945 54.3484 46.786 54.6625 46.9192C54.9837 47.0572 55.3274 47.1262 55.6937 47.1262C56.0249 47.1262 56.3308 47.0722 56.6119 46.9645C56.893 46.8565 57.1588 46.6946 57.4097 46.4789C57.5504 46.3736 57.7158 46.3183 57.9065 46.3133C58.1322 46.3133 58.3192 46.3873 58.4671 46.5353C58.6153 46.6834 58.6892 46.8702 58.6892 47.0961C58.6892 47.3169 58.6064 47.5101 58.4409 47.6756C57.6631 48.358 56.7474 48.6993 55.6937 48.6993C54.5296 48.6993 53.536 48.2878 52.7132 47.4649C51.8902 46.642 51.4788 45.6484 51.4788 44.4844C51.4788 43.3202 51.8902 42.3267 52.7132 41.5039C53.536 40.6808 54.5296 40.2695 55.6937 40.2695ZM60.3906 36.6567C60.6064 36.6567 60.7907 36.7332 60.9437 36.8864C61.0969 37.0393 61.1733 37.2261 61.1733 37.447V43.3177L65.6743 40.3898C65.7996 40.3096 65.9402 40.2695 66.0957 40.2695C66.2062 40.2695 66.3091 40.2896 66.4043 40.3297C66.4997 40.3698 66.5825 40.4262 66.6527 40.499C66.7229 40.5718 66.7793 40.6559 66.822 40.7513C66.8646 40.8458 66.8864 40.9484 66.8861 41.0521C66.8861 41.3331 66.7858 41.5414 66.5849 41.6769L63.4314 43.7243L66.6677 47.367C66.8133 47.5276 66.8861 47.7107 66.8861 47.9165C66.8861 48.0218 66.8647 48.1222 66.822 48.2175C66.7808 48.3108 66.7235 48.3962 66.6527 48.4698C66.5825 48.5426 66.4997 48.5988 66.4043 48.6389C66.3066 48.6796 66.2016 48.7001 66.0957 48.6993C65.885 48.6993 65.7092 48.6315 65.5689 48.496L62.0916 44.5897L61.1733 45.1919V47.9089C61.1733 48.1247 61.0969 48.3103 60.9437 48.4659C60.7907 48.6215 60.6064 48.6993 60.3906 48.6993C60.1697 48.6993 59.9829 48.6215 59.8298 48.4659C59.6768 48.3103 59.6001 48.1247 59.6001 47.9089V37.447C59.6001 37.2261 59.6768 37.0393 59.8298 36.8862C59.9829 36.7332 60.1697 36.6567 60.3906 36.6567ZM71.9517 40.2695C73.1058 40.2695 74.0994 40.6809 74.9322 41.5037C75.3436 41.9103 75.6524 42.3631 75.8581 42.8623C76.0638 43.3616 76.1666 43.9022 76.1666 44.4844C76.1666 44.7101 76.0901 44.8971 75.937 45.0451C75.784 45.193 75.597 45.2671 75.3763 45.2671H69.4153C69.4982 45.5382 69.6254 45.7938 69.7917 46.0235C69.954 46.2485 70.1508 46.4466 70.3748 46.6105C70.5997 46.7744 70.8486 46.9027 71.1126 46.9907C71.381 47.0809 71.6608 47.1262 71.9517 47.1262C72.2829 47.1262 72.5865 47.0761 72.8624 46.9757C73.1384 46.8754 73.3944 46.7248 73.6302 46.524C73.7754 46.4006 73.9589 46.3314 74.1493 46.3283C74.3753 46.3283 74.5622 46.4024 74.7102 46.5503C74.8583 46.6985 74.9322 46.8853 74.9322 47.1112C74.9322 47.3319 74.857 47.52 74.7065 47.6756C73.9286 48.358 73.0105 48.6993 71.9517 48.6993C70.7875 48.6993 69.7941 48.2878 68.9713 47.4649C68.1483 46.642 67.7369 45.6484 67.7369 44.4844C67.7369 43.3202 68.1483 42.3267 68.9713 41.5039C69.7941 40.6808 70.7875 40.2695 71.9517 40.2695ZM81.2473 40.2695C81.4681 40.2695 81.7052 40.2845 81.9586 40.3146C82.212 40.3447 82.4453 40.3987 82.6587 40.4763C82.8718 40.5541 83.0487 40.6607 83.1891 40.7962C83.3298 40.9317 83.4 41.1074 83.4 41.3231C83.4 41.4336 83.3786 41.5366 83.3359 41.6318C83.2947 41.7251 83.2374 41.8104 83.1666 41.8839C83.0964 41.9567 83.0136 42.0132 82.9182 42.0533C82.8204 42.0939 82.7155 42.1143 82.6097 42.1134C82.5142 42.1134 82.4039 42.0859 82.2785 42.0306C81.9625 41.9053 81.6186 41.8425 81.2473 41.8425C80.881 41.8425 80.5374 41.9114 80.2162 42.0495C79.895 42.1875 79.6154 42.3756 79.3769 42.6139C79.1387 42.8523 78.9504 43.1321 78.8125 43.4533C78.6745 43.7743 78.6055 44.1179 78.6055 44.4844V47.9165C78.6055 48.1323 78.529 48.3166 78.3759 48.4696C78.2229 48.6228 78.0385 48.6993 77.8228 48.6993C77.602 48.6993 77.4151 48.6228 77.2621 48.4696C77.1089 48.3166 77.0325 48.1323 77.0325 47.9165V41.0522C77.0325 40.8365 77.1089 40.652 77.2621 40.4991C77.4151 40.346 77.602 40.2695 77.8228 40.2695C78.0385 40.2695 78.2229 40.346 78.3759 40.4991C78.529 40.652 78.6055 40.8365 78.6055 41.0522V41.2026C78.9737 40.9062 79.3882 40.6723 79.8323 40.5103C80.2738 40.3497 80.7455 40.2695 81.2473 40.2695ZM37.0572 41.8424C36.6859 41.8424 36.3397 41.9126 36.0185 42.0531C35.6975 42.1936 35.419 42.383 35.183 42.6214C34.9473 42.8598 34.7603 43.1394 34.6224 43.4607C34.4844 43.7817 34.4154 44.1229 34.4154 44.4842C34.4154 44.8455 34.4844 45.1867 34.6224 45.5079C34.7603 45.8289 34.9473 46.1087 35.183 46.3471C35.419 46.5853 35.6973 46.7748 36.0185 46.9153C36.3397 47.0557 36.6859 47.1261 37.0572 47.1261C37.4235 47.1261 37.7671 47.0557 38.0883 46.9153C38.402 46.7799 38.6869 46.5857 38.9276 46.3432C39.1667 46.1013 39.3581 45.8166 39.492 45.504C39.63 45.1854 39.699 44.8455 39.699 44.4842C39.699 44.1229 39.63 43.783 39.492 43.4643C39.3581 43.1517 39.1667 42.867 38.9276 42.6251C38.6869 42.3826 38.402 42.1885 38.0883 42.0531C37.7671 41.9126 37.4237 41.8424 37.0572 41.8424ZM46.383 41.8424C46.0117 41.8424 45.6655 41.9126 45.3443 42.0531C45.0231 42.1936 44.7447 42.383 44.5089 42.6214C44.2731 42.8598 44.0861 43.1394 43.948 43.4607C43.8101 43.7817 43.741 44.1229 43.741 44.4842C43.741 44.8455 43.8101 45.1867 43.948 45.5079C44.0861 45.8289 44.2731 46.1087 44.5089 46.3471C44.7447 46.5853 45.0231 46.7748 45.3443 46.9153C45.6655 47.0557 46.0117 47.1261 46.383 47.1261C46.7493 47.1261 47.093 47.0557 47.4142 46.9153C47.7279 46.7799 48.0128 46.5857 48.2535 46.3432C48.4925 46.1013 48.684 45.8166 48.8179 45.504C48.9558 45.1854 49.0249 44.8455 49.0249 44.4842C49.0249 44.1229 48.9558 43.783 48.8179 43.4643C48.684 43.1517 48.4925 42.867 48.2535 42.6251C48.0128 42.3826 47.7279 42.1885 47.4142 42.0531C47.093 41.9126 46.7493 41.8424 46.383 41.8424ZM71.9517 41.8424C71.6657 41.8424 71.3873 41.8875 71.1163 41.9777C70.85 42.0657 70.5987 42.1938 70.3711 42.3578C70.1453 42.5209 69.9471 42.7191 69.7841 42.945C69.6182 43.1738 69.4935 43.4298 69.4153 43.7013H74.4881C74.405 43.4296 74.2765 43.1739 74.1081 42.945C73.9437 42.7204 73.7457 42.5224 73.5211 42.3579C73.2962 42.1941 73.0474 42.0659 72.7835 41.9779C72.5155 41.8876 72.2345 41.8419 71.9517 41.8424ZM5.8767 38.0113V40.8598H2.8663V38.0116H5.8767V38.0113ZM9.43451 38.0113V40.8598H6.42412V38.0116H9.43451V38.0113ZM12.9923 38.0113V40.8598H9.98177V38.0116H12.9925L12.9923 38.0113ZM16.5501 38.0113V40.8598H13.5396V38.0116H16.5503L16.5501 38.0113ZM20.1079 38.0113V40.8598H17.0974V38.0116H20.1079V38.0113ZM16.5501 34.5933V37.4417H13.5396V34.5935H16.5503L16.5501 34.5933ZM12.9923 34.5933V37.4417H9.98177V34.5935H12.9925L12.9923 34.5933ZM9.43451 34.5933V37.4417H6.42412V34.5935L9.43451 34.5933ZM16.5501 31.1754V34.0238H13.5396V31.1754H16.5501Z" fill="#2396ED"/>
</g>
<defs>
<clipPath id="clip0_119_305">
<rect width="82.8" height="82.8" fill="white" transform="translate(0.600006 0.575439)"/>
</clipPath>
</defs>
</svg>
