<svg width="366" height="217" viewBox="0 0 366 217" fill="none" xmlns="http://www.w3.org/2000/svg">
<g opacity="0.6" filter="url(#filter0_f_167_569)">
<path d="M310.494 24.2815C310.059 24.0307 309.889 23.6634 310.09 23.314C310.37 22.8124 311.301 22.5436 312.185 22.7138C314.202 23.108 316.375 23.1797 318.439 22.9378C319.137 22.8572 319.665 22.5526 319.804 22.1494C320.208 20.949 320.084 19.6949 319.416 18.5392C319.106 18.0376 319.572 17.5001 320.456 17.3299C321.309 17.1597 322.241 17.4284 322.52 17.9301C323.373 19.4082 323.544 20.9938 323.016 22.5167C322.613 23.6634 321.061 24.5592 319.075 24.7922C316.437 25.0967 313.69 24.9982 311.13 24.5055C310.897 24.4607 310.664 24.3801 310.494 24.2815Z" fill="#F47133"/>
<path d="M326.182 33.3387L319.975 29.7554C319.339 29.3881 319.339 28.7789 319.975 28.4116C320.611 28.0443 321.666 28.0443 322.303 28.4116L328.51 31.995C329.146 32.3622 329.146 32.9714 328.51 33.3387C327.873 33.706 326.818 33.706 326.182 33.3387Z" fill="#F47133"/>
<path d="M312.216 37.8179L302.906 32.4429C294.479 27.5785 294.479 23.4218 302.906 18.5575L312.216 13.1825C320.642 8.31808 327.842 8.31808 336.268 13.1825L345.579 18.5575C354.005 23.4218 354.005 27.5785 345.579 32.4429L336.268 37.8179C327.842 42.6822 320.642 42.6822 312.216 37.8179ZM333.941 14.5262C326.787 10.3964 321.697 10.3964 314.544 14.5262L305.233 19.9012C298.08 24.031 298.08 26.9693 305.233 31.0991L314.544 36.4741C321.697 40.6039 326.787 40.6039 333.941 36.4741L343.251 31.0991C350.405 26.9693 350.405 24.031 343.251 19.9012L333.941 14.5262Z" fill="#F47133"/>
</g>
<path d="M227.802 213.773C227.541 214.846 228.2 215.927 229.273 216.188C230.347 216.449 231.428 215.79 231.689 214.716L227.802 213.773ZM211.426 114.46L212.779 112.987L211.426 114.46ZM218.568 60.8054C217.466 60.7311 216.512 61.5643 216.438 62.6664L215.228 80.6257C215.154 81.7277 215.987 82.6813 217.089 82.7556C218.191 82.8299 219.145 81.9967 219.219 80.8946L220.295 64.9308L236.258 66.0066C237.36 66.0809 238.314 65.2477 238.388 64.1456C238.463 63.0435 237.629 62.0899 236.527 62.0157L218.568 60.8054ZM198.362 162.226C198.961 161.298 198.695 160.06 197.767 159.46C196.839 158.861 195.601 159.127 195.002 160.055L198.362 162.226ZM177.748 179.903C176.887 180.595 176.75 181.854 177.442 182.715C178.133 183.576 179.392 183.713 180.253 183.021L177.748 179.903ZM246.574 79.0767C246.192 78.0402 245.043 77.5092 244.006 77.8909C242.97 78.2725 242.439 79.4221 242.82 80.4587L246.574 79.0767ZM244.604 109.482C244.26 110.532 244.832 111.662 245.881 112.006C246.931 112.35 248.061 111.778 248.405 110.728L244.604 109.482ZM187.796 153.901C187.678 152.803 186.692 152.009 185.594 152.127C184.495 152.245 183.701 153.232 183.819 154.33L187.796 153.901ZM171.95 165.372C170.955 165.852 170.538 167.048 171.018 168.043C171.498 169.037 172.694 169.455 173.688 168.975L171.95 165.372ZM231.689 214.716C234.479 203.227 236.885 184.443 235.074 165.264C233.267 146.12 227.222 126.244 212.779 112.987L210.074 115.933C223.464 128.224 229.326 146.932 231.092 165.64C232.855 184.312 230.503 202.646 227.802 213.773L231.689 214.716ZM212.779 112.987C203.835 104.777 195.37 101.452 188.222 101.664C181.032 101.878 175.447 105.675 172.482 111.083C169.529 116.469 169.215 123.363 172.284 129.769C175.362 136.191 181.759 141.981 191.997 145.439L193.277 141.649C183.851 138.465 178.415 133.307 175.892 128.04C173.36 122.758 173.677 117.224 175.989 113.006C178.288 108.813 182.6 105.833 188.341 105.663C194.123 105.491 201.621 108.175 210.074 115.933L212.779 112.987ZM191.997 145.439C202.426 148.961 211.101 147.12 217.711 141.728C224.207 136.427 228.487 127.881 230.727 118.334C232.974 108.756 233.222 97.9552 231.462 87.8798C229.704 77.8208 225.915 68.3242 219.94 61.4849L216.927 64.1168C222.28 70.2423 225.846 78.9815 227.521 88.5683C229.193 98.1387 228.951 108.394 226.833 117.421C224.708 126.479 220.749 134.087 215.182 138.629C209.727 143.079 202.514 144.769 193.277 141.649L191.997 145.439ZM196.682 161.14C195.002 160.055 195.002 160.055 195.002 160.055C195.002 160.055 195.002 160.055 195.002 160.055C195.002 160.055 195.002 160.055 195.001 160.056C195.001 160.057 195 160.059 194.998 160.061C194.995 160.066 194.989 160.074 194.982 160.085C194.968 160.107 194.946 160.141 194.916 160.186C194.857 160.276 194.767 160.412 194.649 160.588C194.413 160.94 194.063 161.455 193.612 162.098C192.711 163.386 191.41 165.183 189.818 167.214C186.618 171.296 182.307 176.239 177.748 179.903L180.253 183.021C185.163 179.076 189.693 173.857 192.966 169.681C194.611 167.583 195.955 165.727 196.889 164.393C197.356 163.725 197.722 163.188 197.971 162.815C198.096 162.629 198.193 162.484 198.258 162.384C198.291 162.334 198.316 162.296 198.333 162.269C198.342 162.256 198.349 162.246 198.354 162.238C198.356 162.235 198.358 162.232 198.359 162.23C198.36 162.229 198.36 162.228 198.361 162.227C198.361 162.227 198.361 162.226 198.361 162.226C198.361 162.226 198.362 162.226 196.682 161.14ZM244.697 79.7677C242.82 80.4587 242.82 80.4583 242.82 80.458C242.82 80.458 242.82 80.4577 242.82 80.4577C242.82 80.4576 242.82 80.4577 242.82 80.4582C242.82 80.459 242.821 80.4609 242.822 80.4637C242.824 80.4695 242.828 80.4792 242.833 80.4929C242.843 80.5202 242.858 80.5633 242.878 80.6216C242.919 80.7381 242.98 80.915 243.057 81.1474C243.211 81.6125 243.428 82.2989 243.677 83.1672C244.175 84.9058 244.796 87.3634 245.282 90.2269C246.264 96.0032 246.66 103.209 244.604 109.482L248.405 110.728C250.758 103.549 250.25 95.5862 249.226 89.5568C248.71 86.5175 248.052 83.913 247.522 82.0652C247.257 81.1404 247.024 80.4025 246.855 79.8916C246.77 79.6361 246.702 79.4371 246.654 79.2997C246.63 79.2309 246.611 79.1776 246.597 79.1402C246.59 79.1216 246.585 79.1069 246.581 79.0963C246.579 79.091 246.578 79.0867 246.577 79.0834C246.576 79.0818 246.575 79.0804 246.575 79.0793C246.575 79.0787 246.575 79.0781 246.574 79.0778C246.574 79.0773 246.574 79.0767 244.697 79.7677ZM185.808 154.116C183.819 154.33 183.819 154.328 183.819 154.326C183.819 154.325 183.819 154.323 183.818 154.322C183.818 154.319 183.818 154.316 183.818 154.314C183.817 154.309 183.817 154.304 183.816 154.3C183.816 154.291 183.815 154.284 183.815 154.279C183.814 154.267 183.814 154.262 183.814 154.261C183.814 154.261 183.814 154.282 183.813 154.325C183.809 154.408 183.796 154.576 183.745 154.817C183.645 155.294 183.394 156.085 182.753 157.102C181.47 159.138 178.559 162.183 171.95 165.372L173.688 168.975C180.763 165.561 184.346 162.077 186.137 159.235C187.033 157.813 187.463 156.578 187.66 155.638C187.758 155.17 187.797 154.782 187.809 154.487C187.815 154.34 187.815 154.216 187.811 154.118C187.809 154.069 187.807 154.026 187.804 153.99C187.803 153.972 187.802 153.955 187.8 153.941C187.8 153.933 187.799 153.926 187.798 153.92C187.798 153.916 187.798 153.913 187.797 153.91C187.797 153.909 187.797 153.907 187.797 153.906C187.797 153.904 187.796 153.901 185.808 154.116Z" fill="#FFC449"/>
<g opacity="0.3" filter="url(#filter1_f_167_569)">
<path d="M94.1139 82.4454C92.346 83.4661 89.7837 83.9098 87.0422 83.6879L78.0744 82.9483C77.895 82.9335 77.4593 83.037 77.3056 83.0962L76.0245 83.8358C65.3401 90.0039 55.8343 92.1487 41.4346 83.8358L28.6235 76.4399C17.2985 69.902 17.2985 63.0091 28.6235 56.4712L49.1213 44.6379C60.4462 38.0999 72.3862 38.0999 83.7112 44.6379L96.5222 52.0337C107.847 58.5716 107.847 65.4645 96.5222 72.0024L95.2411 72.742C95.0361 72.8604 94.9593 73.0231 94.985 73.1858L96.2661 78.3629C96.6504 79.9456 95.8818 81.4248 94.1139 82.4454ZM32.4669 58.6899C23.2941 63.9854 23.2941 68.9258 32.4669 74.2212L45.2779 81.617C56.8591 88.3029 62.701 87.0899 72.1812 81.617L73.4623 80.8774C74.769 80.1231 76.9982 79.6941 78.843 79.8421L87.8107 80.5816C89.8861 80.7443 91.1672 80.0047 90.8854 78.8066L89.6043 73.6295C89.3224 72.4906 89.9886 71.3368 91.3978 70.5233L92.6789 69.7837C101.852 64.4883 101.852 59.5479 92.6789 54.2524L79.8678 46.8566C70.6951 41.5612 62.1373 41.5612 52.9646 46.8566L32.4669 58.6899Z" fill="#9747FF"/>
<path d="M59.9592 74.5614C59.4723 74.8424 58.8061 75.0199 58.0374 75.0199L47.7886 75.0199C46.3025 75.0199 45.0726 74.3099 45.0726 73.452V67.5353C45.0726 66.6774 46.3025 65.9674 47.7886 65.9674C49.2746 65.9674 50.5045 66.6774 50.5045 67.5353L50.5046 71.8841L58.0374 71.8841C59.5235 71.8841 60.7534 72.5941 60.7534 73.452C60.7534 73.8957 60.446 74.2804 59.9592 74.5614Z" fill="#9747FF"/>
<path d="M80.4569 62.7282C79.9701 63.0093 79.3038 63.1867 78.5351 63.1867C77.0491 63.1867 75.8192 62.4767 75.8192 61.6188L75.8193 57.2701L68.2863 57.2701C66.8002 57.2701 65.5703 56.5601 65.5703 55.7021C65.5703 54.8442 66.8002 54.1342 68.2863 54.1342L78.5351 54.1342C80.0212 54.1342 81.2511 54.8442 81.2511 55.7021L81.2511 61.6188C81.2511 62.0626 80.9437 62.4472 80.4569 62.7282Z" fill="#9747FF"/>
<path d="M68.4914 70.6124C68.2352 70.7603 67.9276 70.8785 67.5689 70.9673C66.1853 71.2927 64.5967 70.9081 64.033 70.0798L57.192 60.2138C56.6283 59.415 57.2944 58.4979 58.7292 58.1725C60.1128 57.8471 61.7014 58.2317 62.2651 59.06L69.1063 68.9261C69.5163 69.5178 69.2345 70.1834 68.4914 70.6124Z" fill="#9747FF"/>
</g>
<g opacity="0.4" filter="url(#filter2_f_167_569)">
<path d="M347 202.75C345.48 202.75 344.25 201.52 344.25 200C344.25 198.48 345.48 197.25 347 197.25C348.52 197.25 349.75 198.48 349.75 200C349.75 201.52 348.52 202.75 347 202.75ZM347 198.75C346.31 198.75 345.75 199.31 345.75 200C345.75 200.69 346.31 201.25 347 201.25C347.69 201.25 348.25 200.69 348.25 200C348.25 199.31 347.69 198.75 347 198.75Z" fill="#E8E4F1"/>
<path d="M347 194.75C345.48 194.75 344.25 193.52 344.25 192C344.25 190.48 345.48 189.25 347 189.25C348.52 189.25 349.75 190.48 349.75 192C349.75 193.52 348.52 194.75 347 194.75ZM347 190.75C346.31 190.75 345.75 191.31 345.75 192C345.75 192.69 346.31 193.25 347 193.25C347.69 193.25 348.25 192.69 348.25 192C348.25 191.31 347.69 190.75 347 190.75Z" fill="#E8E4F1"/>
<path d="M347 210.75C345.48 210.75 344.25 209.52 344.25 208C344.25 206.48 345.48 205.25 347 205.25C348.52 205.25 349.75 206.48 349.75 208C349.75 209.52 348.52 210.75 347 210.75ZM347 206.75C346.31 206.75 345.75 207.31 345.75 208C345.75 208.69 346.31 209.25 347 209.25C347.69 209.25 348.25 208.69 348.25 208C348.25 207.31 347.69 206.75 347 206.75Z" fill="#E8E4F1"/>
<path d="M331 202.75C329.48 202.75 328.25 201.52 328.25 200C328.25 198.48 329.48 197.25 331 197.25C332.52 197.25 333.75 198.48 333.75 200C333.75 201.52 332.52 202.75 331 202.75ZM331 198.75C330.31 198.75 329.75 199.31 329.75 200C329.75 200.69 330.31 201.25 331 201.25C331.69 201.25 332.25 200.69 332.25 200C332.25 199.31 331.69 198.75 331 198.75Z" fill="#E8E4F1"/>
<path d="M345 200.75H333C332.59 200.75 332.25 200.41 332.25 200C332.25 199.59 332.59 199.25 333 199.25H345C345.41 199.25 345.75 199.59 345.75 200C345.75 200.41 345.41 200.75 345 200.75Z" fill="#E8E4F1"/>
<path d="M345 208.75H341C338.58 208.75 337.25 207.42 337.25 205V195C337.25 192.58 338.58 191.25 341 191.25H345C345.41 191.25 345.75 191.59 345.75 192C345.75 192.41 345.41 192.75 345 192.75H341C339.42 192.75 338.75 193.42 338.75 195V205C338.75 206.58 339.42 207.25 341 207.25H345C345.41 207.25 345.75 207.59 345.75 208C345.75 208.41 345.41 208.75 345 208.75Z" fill="#E8E4F1"/>
</g>
<defs>
<filter id="filter0_f_167_569" x="283" y="0" width="82.4846" height="51" filterUnits="userSpaceOnUse" color-interpolation-filters="sRGB">
<feFlood flood-opacity="0" result="BackgroundImageFix"/>
<feBlend mode="normal" in="SourceGraphic" in2="BackgroundImageFix" result="shape"/>
<feGaussianBlur stdDeviation="2" result="effect1_foregroundBlur_167_569"/>
</filter>
<filter id="filter1_f_167_569" x="0" y="26" width="132.986" height="81" filterUnits="userSpaceOnUse" color-interpolation-filters="sRGB">
<feFlood flood-opacity="0" result="BackgroundImageFix"/>
<feBlend mode="normal" in="SourceGraphic" in2="BackgroundImageFix" result="shape"/>
<feGaussianBlur stdDeviation="2.5" result="effect1_foregroundBlur_167_569"/>
</filter>
<filter id="filter2_f_167_569" x="323" y="184" width="32" height="32" filterUnits="userSpaceOnUse" color-interpolation-filters="sRGB">
<feFlood flood-opacity="0" result="BackgroundImageFix"/>
<feBlend mode="normal" in="SourceGraphic" in2="BackgroundImageFix" result="shape"/>
<feGaussianBlur stdDeviation="2" result="effect1_foregroundBlur_167_569"/>
</filter>
</defs>
</svg>
