<svg width="84" height="84" viewBox="0 0 84 84" fill="none" xmlns="http://www.w3.org/2000/svg">
<g id="Tech Icons" clip-path="url(#clip0_119_453)">
<path id="Vector" d="M17.2247 29.0379V29.2967C17.2247 29.9436 17.0306 30.0082 16.9013 30.3964C16.7072 30.8492 16.7719 31.4314 17.0306 31.8195C17.0306 31.8842 17.0953 31.9489 17.0953 31.9489C16.8366 30.1376 18.3244 29.8142 18.6478 29.2967C18.6478 28.7792 18.2597 28.4557 17.9363 28.2617C17.6128 28.0676 17.3541 28.0029 17.0953 28.0029C16.9013 28.0029 16.7072 28.0676 16.5131 28.1323C16.9013 28.3911 17.0953 28.7145 17.2247 29.0379Z" fill="#AF2675"/>
<path id="Vector_2" d="M24.6638 33.566V33.8248C24.6638 34.0188 24.5991 34.1482 24.5991 34.2776C24.5344 34.4069 24.5344 34.601 24.4697 34.7304C24.405 34.8598 24.3403 35.0538 24.2756 35.1832C24.2109 35.3126 24.1463 35.5066 24.0816 35.636C24.0169 35.7654 23.8875 35.8948 23.8228 36.0241C23.7581 36.1535 23.6288 36.2829 23.4994 36.4123C23.37 36.5416 23.3053 36.671 23.1759 36.8004L22.9819 36.9944C22.9172 37.0591 22.8525 37.0591 22.7878 37.1238C22.6584 37.2532 22.5291 37.3179 22.3997 37.3826C22.2703 37.4473 22.1409 37.5766 21.9469 37.6413C21.8175 37.706 21.6234 37.7707 21.4941 37.8354C21.3647 37.9001 21.1706 37.9648 21.0413 37.9648C20.9119 38.0294 20.7178 38.0294 20.5884 38.0941C20.3944 38.0941 20.265 38.1588 20.0709 38.1588H19.23C19.0359 38.1588 18.9066 38.0941 18.7125 38.0941C18.5184 38.0941 18.3891 38.0294 18.2597 37.9648C18.3891 37.9648 18.5831 37.9648 18.7125 37.9001C18.9066 37.9001 19.0359 37.8354 19.1653 37.7707C19.2947 37.706 19.4888 37.706 19.6181 37.6413C19.7475 37.5766 19.9416 37.5119 20.0709 37.4473C20.2003 37.3826 20.3297 37.3179 20.5238 37.1885C20.6531 37.1238 20.7825 36.9944 20.9119 36.9298C21.0413 36.8004 21.1706 36.7357 21.3 36.6063L21.6234 36.2829C21.7528 36.1535 21.8175 36.0241 21.9469 35.8948C21.9469 35.8948 21.9469 35.8301 22.0116 35.8301C22.0763 35.7007 22.1409 35.5713 22.2056 35.5066C22.2703 35.3773 22.335 35.2479 22.3997 35.0538C22.4644 34.9244 22.5291 34.7304 22.5938 34.601C22.6584 34.4716 22.6584 34.2776 22.7231 34.1482C22.7231 33.9541 22.7878 33.8248 22.7878 33.6954V32.8544C22.7878 32.6604 22.7231 32.531 22.7231 32.4016C22.7231 32.2076 22.6584 32.0782 22.5938 31.9488C22.5291 31.8194 22.4644 31.6254 22.4644 31.496C22.3997 31.3666 22.335 31.1726 22.2703 31.0432C22.2056 30.9138 22.1409 30.7844 22.0116 30.5904C21.9469 30.461 21.8175 30.3316 21.7528 30.2023C21.6234 30.0729 21.5588 29.9435 21.4294 29.8141L21.2353 29.6201C20.9119 29.3613 20.5884 29.1026 20.2003 28.9085C20.1356 28.9085 20.1356 28.8438 20.0709 28.8438C19.8122 28.7144 19.6181 28.5851 19.3594 28.5204V28.9085C19.3594 28.9732 19.3594 29.0379 19.2947 29.1026C19.2947 29.1673 19.23 29.2319 19.23 29.2966C19.23 29.3613 19.1653 29.426 19.1653 29.4907L19.1006 29.5554C19.1006 29.5554 19.1006 29.6201 19.0359 29.6201C18.9713 29.6848 18.9713 29.7494 18.9066 29.7494L18.7772 29.8788L18.6478 30.0082C18.5184 30.1376 18.3244 30.2023 18.195 30.3316C18.1303 30.3963 18.0656 30.3963 18.0656 30.461L17.9363 30.5904L17.8069 30.7198L17.6775 30.8491C17.6128 30.9138 17.6128 30.9785 17.5481 30.9785C17.5481 31.0432 17.4834 31.1079 17.4834 31.1726C17.4834 31.2373 17.4188 31.3019 17.4188 31.3666C17.4188 31.4313 17.3541 31.496 17.3541 31.5607V32.2076C17.3541 32.2723 17.3541 32.3369 17.4188 32.4016C17.4188 32.4663 17.4834 32.531 17.4834 32.5957C17.4834 32.6604 17.5481 32.6604 17.5481 32.7251L15.8663 32.0782C15.6075 32.0135 15.2841 31.9488 15.0253 31.8841C14.8959 31.8194 14.7019 31.8194 14.5725 31.7548C14.1197 31.6901 13.6669 31.6254 13.2788 31.5607H13.2141C12.7613 31.496 12.3731 31.496 11.9203 31.496C11.5969 31.496 11.2734 31.496 10.95 31.5607C10.4972 31.5607 10.0444 31.6254 9.65626 31.6901C9.52688 31.6901 9.46219 31.7548 9.33282 31.7548C9.13876 31.8194 8.88001 31.8194 8.68594 31.8841C8.55657 31.8841 8.49188 31.9488 8.36251 31.9488C8.23313 32.0135 8.16844 32.0135 8.03907 32.0782C7.97438 32.1429 7.90969 32.1429 7.78032 32.2076H7.71563C7.65094 32.2723 7.58626 32.2723 7.52157 32.3369H7.45688C7.39219 32.4016 7.32751 32.4016 7.26282 32.4663C7.19813 32.4663 7.13344 32.531 7.13344 32.531C7.13344 32.531 7.06876 32.531 7.06876 32.5957C7.00407 32.6604 6.93938 32.6604 6.87469 32.7251C6.81001 32.7898 6.74532 32.7898 6.68063 32.8544C6.61594 32.9191 6.55126 32.9191 6.55126 32.9838C6.48657 32.9838 6.48657 33.0485 6.42188 33.1132C6.35719 33.1132 6.35719 33.1779 6.29251 33.1779H6.22782C6.16313 33.1779 6.16313 33.2426 6.09844 33.2426L5.96907 33.3719L5.83969 33.5013C5.77501 33.3719 5.77501 33.3719 5.71032 33.4366C5.71032 33.4366 5.64563 33.4366 5.64563 33.5013L5.51626 33.6307V33.6954L5.32219 33.8894C5.19282 34.0188 5.06344 34.1482 4.93407 34.2129C4.80469 34.3423 4.67532 34.4069 4.54594 34.5363C4.41657 34.6657 4.28719 34.7304 4.09313 34.7951C3.96376 34.8598 3.83438 34.9244 3.64032 34.9891C3.51094 35.0538 3.31688 35.1185 3.18751 35.1832C2.86407 35.2479 2.54063 35.3773 2.28188 35.3773H2.08782C2.02313 35.3773 1.95844 35.3773 1.89376 35.4419C1.89376 35.5066 1.82907 35.5066 1.76438 35.5066C1.69969 35.5066 1.63501 35.5713 1.57032 35.5713C1.50563 35.636 1.44094 35.636 1.44094 35.7007C1.37626 35.7654 1.31157 35.7654 1.31157 35.8301C1.24688 35.8948 1.18219 35.8948 1.18219 35.9594L1.05282 36.0888C0.988131 36.1535 0.988131 36.2182 0.923444 36.2829C0.858756 36.3476 0.858756 36.4123 0.794069 36.4769C0.794069 36.5416 0.729381 36.6063 0.729381 36.671C0.729381 36.7357 0.664694 36.8004 0.664694 36.8651C0.664694 36.9298 0.664694 36.9944 0.600006 37.0591V37.5766C0.600006 37.6413 0.600006 37.6413 0.664694 37.706C0.664694 37.7707 0.729381 37.7707 0.729381 37.8354C0.729381 37.9001 0.794069 37.9001 0.794069 37.9648L0.923444 38.0941L1.05282 38.2235C1.24688 38.3529 1.24688 38.4176 1.50563 38.5469C1.57032 38.5469 1.57032 38.6116 1.63501 38.6116V38.6763C1.63501 38.741 1.63501 38.8057 1.69969 38.8704C1.69969 38.9351 1.76438 38.9998 1.76438 39.0644C1.76438 39.1291 1.82907 39.1291 1.82907 39.1938V39.2585C1.82907 39.3232 1.89376 39.3879 1.89376 39.3879C1.95844 39.4526 1.95844 39.5173 2.02313 39.5173L2.15251 39.6466L2.28188 39.776L2.41126 39.9054C2.47594 39.9701 2.54063 39.9701 2.54063 39.9701C2.60532 39.9701 2.67001 40.0348 2.73469 40.0348H2.99344V40.9404C3.18751 41.1344 3.51094 40.6816 3.83438 40.1641C3.76969 40.6816 3.76969 41.2638 3.83438 41.3932C3.89907 41.5873 4.35188 41.0051 4.74001 40.3582C9.85032 39.1938 14.5725 42.6869 15.0253 47.7326C14.9606 46.9563 13.9903 46.5035 13.5375 46.6329C13.3434 47.1504 12.9553 47.8619 12.3731 48.2501C12.4378 47.7973 12.3731 47.2798 12.3084 46.8269C12.1791 47.4738 11.8556 48.1207 11.4028 48.6382C10.6913 48.7029 10.0444 48.3794 9.65626 47.8619L9.59157 47.7973C9.59157 47.7326 9.52688 47.6679 9.52688 47.6679C9.52688 47.6032 9.46219 47.5385 9.46219 47.5385V47.2798C9.46219 47.2151 9.46219 47.1504 9.52688 47.1504C9.52688 47.0857 9.52688 47.021 9.59157 47.021C9.59157 46.9563 9.65626 46.8916 9.65626 46.8916C9.78563 46.5682 9.78563 46.2448 9.52688 46.1154C9.46219 46.1154 9.46219 46.0507 9.39751 46.0507H9.26813C9.20344 46.0507 9.13876 46.0507 9.13876 45.986H8.49188C8.42719 45.986 8.36251 45.986 8.36251 46.0507C8.29782 46.0507 8.29782 46.1154 8.23313 46.1154C8.16844 46.1154 8.16844 46.1801 8.10376 46.1801C6.22782 47.1504 7.26282 49.7379 8.36251 50.4494C7.90969 50.5141 7.45688 50.6435 7.39219 50.7082C7.71563 50.9023 8.03907 51.0316 8.36251 51.161C8.81532 51.2904 9.33282 51.4198 9.52688 51.4844C10.1091 51.6138 10.7559 51.6785 11.3381 51.6138C14.5725 51.4198 17.16 48.9616 17.6775 45.7273C17.6775 45.7919 17.6775 45.8566 17.7422 45.9213C17.7422 46.0507 17.8069 46.1801 17.8069 46.3094V48.3148C17.8069 48.3794 17.8069 48.4441 17.7422 48.5088C17.7422 48.5735 17.7422 48.6382 17.6775 48.7029C17.6775 48.7676 17.6775 48.8323 17.6128 48.8969C17.6128 48.9616 17.5481 49.0263 17.5481 49.091C17.5481 49.1557 17.4834 49.2204 17.4834 49.2851C17.4834 49.3498 17.4188 49.4144 17.4188 49.4791C17.4188 49.5438 17.3541 49.6085 17.3541 49.6732C17.3541 49.7379 17.2894 49.8026 17.2894 49.8673C17.2894 49.9319 17.2247 49.9966 17.2247 50.0613V50.126C16.7719 51.0963 16.0603 51.9373 15.2194 52.5841C15.1547 52.6488 15.09 52.6488 15.0253 52.7135C15.0253 52.7135 14.9606 52.7135 14.9606 52.7782C14.8959 52.8429 14.8313 52.8429 14.8313 52.9076V52.9723C14.9606 52.9723 15.0253 52.9723 15.1547 52.9076C15.3488 52.9076 15.5428 52.8429 15.7369 52.7782C15.8016 52.7782 15.8663 52.7782 15.8663 52.7135H16.125C16.1897 52.7135 16.1897 52.7135 16.2544 52.6488C16.9659 52.4548 17.6775 52.2607 18.3244 51.9373C17.16 53.4898 15.6075 54.7835 13.8609 55.6244C14.7019 55.5598 15.5428 55.4304 16.3191 55.1716C19.23 54.3307 21.6881 52.3254 23.1759 49.7379C22.8525 51.4198 22.2056 52.9723 21.2353 54.3954C21.9469 53.9426 22.5938 53.4251 23.1759 52.7782C24.7931 51.0963 25.8281 48.9616 26.2163 46.6329C26.475 47.7973 26.5397 48.9616 26.4103 50.126C31.4559 43.1398 26.6691 35.5713 24.6638 33.566ZM49.245 46.5035C49.5038 39.8407 48.9863 39.2585 48.9863 39.2585C46.0753 34.5363 41.2884 39.2585 41.2884 39.2585V36.5416H40.5769C39.6066 38.2882 36.825 38.6116 36.825 38.6116V39.3232C38.6363 39.7113 38.4422 40.5523 38.4422 40.5523C38.4422 40.5523 38.5069 44.8863 38.5069 46.2448C38.5069 47.6032 38.0541 47.3444 38.0541 47.3444L36.825 47.6032V48.3794C38.1188 47.9913 42.7116 48.3794 42.7116 48.3794L42.7763 47.6032C41.4178 47.4091 41.2884 46.5682 41.2884 46.5682V40.1641C42.5175 39.0644 43.6819 38.6763 43.6819 38.6763C46.0753 38.0941 46.2694 40.4229 46.2694 40.4229L46.3341 46.3094C46.7869 47.8619 44.5228 47.6032 44.5228 47.6032L44.5875 48.3794L48.1453 48.1207L50.5388 48.3794V47.6032C49.3744 47.4091 49.3097 47.4091 49.245 46.5035ZM57.6544 36.9298C52.4794 36.9298 52.2206 41.5873 52.2206 41.5873C52.2206 41.5873 51.315 48.6382 57.6544 48.6382C61.7297 48.6382 62.9588 46.3094 62.9588 46.3094L62.1825 45.5979C62.1825 45.5979 56.1019 49.9966 55.3256 41.6519H63.0234C62.9588 41.5873 62.8294 36.9298 57.6544 36.9298ZM60.0478 40.7463H55.2609V40.4229C55.2609 39.0644 56.3606 37.9001 57.7838 37.9001C59.0128 37.9001 60.0478 38.9351 60.0478 40.1641V40.7463ZM71.3681 41.7813C69.6216 41.4579 68.4572 41.0051 68.4572 41.0051C68.4572 41.0051 65.7403 39.9054 68.1338 38.2882C70.7859 36.9298 72.3384 40.811 72.3384 40.811C72.3384 40.811 72.9206 40.9404 73.3088 40.6169C73.4381 40.2288 72.9853 37.9001 72.9853 37.9001C72.9853 37.9001 72.1444 36.8651 67.9397 37.1885C67.9397 37.1885 65.6756 37.706 65.2875 39.8407C64.8994 41.9754 66.2578 43.1398 66.2578 43.1398C66.2578 43.1398 66.84 43.9807 68.8453 44.1748C70.5919 44.3688 71.3681 45.0804 71.3681 45.0804C71.3681 45.0804 72.2738 45.9213 71.3034 46.9563C70.3331 47.9913 69.0394 47.6032 69.0394 47.6032C69.0394 47.6032 67.5516 47.6679 65.805 44.6276L64.9641 44.6923L65.2875 47.7326C65.2875 47.7326 69.4275 50.0613 72.5972 47.7326C75.8316 44.8216 73.1147 42.1048 71.3681 41.7813ZM82.8178 46.2448C80.8125 47.9266 80.4244 45.9213 80.4244 45.9213V39.0644H83.1413V37.7707H80.5538V34.9891H79.7128C78.5484 37.4473 75.9609 38.2882 75.9609 38.2882V38.8057C75.9609 39.1291 76.2197 39.1291 76.2197 39.1291H77.5134C77.5134 39.1291 77.3841 44.1101 77.4488 45.8566C77.5134 47.6032 78.7425 48.1207 78.7425 48.1207C78.7425 48.1207 79.5834 48.5735 80.9419 48.4441C82.3003 48.3148 83.2706 46.9563 83.2706 46.9563L82.8178 46.2448Z" fill="#AF2675"/>
</g>
<defs>
<clipPath id="clip0_119_453">
<rect width="82.8" height="82.8" fill="white" transform="translate(0.600006 0.575439)"/>
</clipPath>
</defs>
</svg>
