<svg width="84" height="84" viewBox="0 0 84 84" fill="none" xmlns="http://www.w3.org/2000/svg">
<g id="Tech Icons" clip-path="url(#clip0_119_406)">
<path id="Vector" d="M20.1356 30.267H35.7253V31.496H21.5588V40.811H34.8844V42.0401H21.5588V52.2607H35.9194V53.4898H20.1356V30.267ZM37.1484 30.267H38.8303L46.2047 40.4876L53.6438 30.267L63.8644 17.3295L47.0456 41.5873L55.7138 53.4898H53.9672L46.14 42.6223L38.2481 53.4898H36.5663L45.2991 41.5873L37.1484 30.267ZM56.3606 31.496V30.267H74.1497V31.496H65.9344V53.4898H64.5113V31.496H56.3606ZM0.600006 30.267H2.34657L27.0572 67.0095L16.8366 53.4898L2.08782 32.0135L2.02313 53.4898H0.600006V30.267ZM74.0203 51.8726C74.3438 51.8726 74.5378 51.6785 74.5378 51.3551C74.5378 51.0317 74.3438 50.8376 74.0203 50.8376C73.6969 50.8376 73.5028 51.0317 73.5028 51.3551C73.5028 51.6785 73.7616 51.8726 74.0203 51.8726ZM75.4434 50.5142C75.4434 51.3551 76.0903 51.9373 76.9959 51.9373C77.9663 51.9373 78.5484 51.3551 78.5484 50.3201V46.7623H77.7722V50.3201C77.7722 50.9023 77.5134 51.161 76.9959 51.161C76.5431 51.161 76.2197 50.9023 76.2197 50.4495H75.4434V50.5142ZM79.5188 50.4495C79.5834 51.3551 80.295 51.9373 81.4594 51.9373C82.6238 51.9373 83.4 51.3551 83.4 50.3848C83.4 49.6085 82.9472 49.2204 81.9769 48.9617L81.3947 48.8323C80.7478 48.7029 80.4891 48.4442 80.4891 48.1207C80.4891 47.6679 80.8772 47.3445 81.5241 47.3445C82.1063 47.3445 82.4944 47.6032 82.5591 48.1207H83.3353C83.2706 47.2798 82.5591 46.6976 81.5241 46.6976C80.4244 46.6976 79.7128 47.2798 79.7128 48.1854C79.7128 48.897 80.1009 49.3498 81.0066 49.5438L81.6534 49.6732C82.3003 49.8026 82.6238 50.0613 82.6238 50.4495C82.6238 50.9023 82.1709 51.2257 81.5241 51.2257C80.8772 51.2257 80.3597 50.9023 80.295 50.4495H79.5188Z" fill="black"/>
</g>
<defs>
<clipPath id="clip0_119_406">
<rect width="82.8" height="82.8" fill="white" transform="translate(0.600006 0.575439)"/>
</clipPath>
</defs>
</svg>
