<svg width="84" height="84" viewBox="0 0 84 84" fill="none" xmlns="http://www.w3.org/2000/svg">
<g id="Tech Icons">
<g id="Group 9">
<path id="Vector" d="M41.5507 67.4772C41.27 67.4772 41.008 67.4024 40.7646 67.2714L38.2755 65.7929C37.9011 65.5869 38.0883 65.5121 38.2007 65.4747C38.7059 65.3063 38.7995 65.2687 39.3235 64.9694C39.3797 64.9319 39.4547 64.9507 39.5107 64.9881L41.4198 66.1297C41.4946 66.1671 41.5882 66.1671 41.6443 66.1297L49.112 61.8063C49.1868 61.7689 49.2244 61.6939 49.2244 61.6005V52.9724C49.2244 52.8787 49.1868 52.804 49.112 52.7665L41.6443 48.4618C41.5694 48.4242 41.4758 48.4242 41.4198 48.4618L33.952 52.7665C33.8772 52.8039 33.8397 52.8975 33.8397 52.9723V61.6003C33.8397 61.6753 33.8772 61.7687 33.952 61.8063L35.9921 62.9854C37.0964 63.5468 37.7888 62.8918 37.7888 62.2367V53.7209C37.7888 53.6087 37.8824 53.4963 38.0135 53.4963H38.9679C39.0803 53.4963 39.1925 53.5899 39.1925 53.7209V62.2367C39.1925 63.7152 38.3877 64.5763 36.984 64.5763C36.5536 64.5763 36.2167 64.5763 35.2621 64.1083L33.297 62.9854C32.8104 62.7047 32.511 62.1805 32.511 61.6191V52.9911C32.511 52.4296 32.8104 51.9054 33.297 51.6248L40.7646 47.3014C41.2326 47.0394 41.869 47.0394 42.3369 47.3014L49.8045 51.6248C50.2911 51.9054 50.5907 52.4296 50.5907 52.9911V61.6191C50.5907 62.1805 50.2911 62.7047 49.8045 62.9854L42.3369 67.3088C42.0935 67.4212 41.8127 67.4772 41.5507 67.4772ZM43.8528 61.5443C40.5776 61.5443 39.9038 60.047 39.9038 58.7743C39.9038 58.662 39.9974 58.5497 40.1284 58.5497H41.1016C41.2138 58.5497 41.3074 58.6246 41.3074 58.7369C41.4572 59.7288 41.8877 60.2154 43.8716 60.2154C45.4436 60.2154 46.1176 59.8598 46.1176 59.0176C46.1176 58.531 45.9303 58.1755 43.4785 57.9321C41.4384 57.7261 40.1658 57.2771 40.1658 55.6488C40.1658 54.1327 41.4386 53.2343 43.5721 53.2343C45.9677 53.2343 47.1469 54.0579 47.2967 55.8544C47.2967 55.9108 47.2779 55.9668 47.2405 56.023C47.2029 56.0604 47.1469 56.0978 47.0907 56.0978H46.1175C46.0239 56.0978 45.9303 56.023 45.9117 55.9294C45.687 54.9001 45.1068 54.5632 43.5721 54.5632C41.8502 54.5632 41.6443 55.1622 41.6443 55.6112C41.6443 56.154 41.8877 56.3224 44.2084 56.6219C46.5105 56.9215 47.5961 57.3519 47.5961 58.9614C47.5773 60.6085 46.2299 61.5443 43.8528 61.5443Z" fill="#539E43"/>
<path id="Vector_2" d="M18.3803 33.7323C18.3803 33.3954 18.1931 33.0771 17.8937 32.9087L9.95808 28.342C9.82691 28.267 9.67727 28.2296 9.52764 28.2108H9.45267C9.30304 28.2108 9.15324 28.267 9.02224 28.342L1.08663 32.9087C0.787044 33.0771 0.600006 33.3953 0.600006 33.7323L0.618791 46.0099C0.618791 46.1783 0.712391 46.3468 0.862022 46.4217C1.01181 46.5153 1.19885 46.5153 1.33002 46.4217L6.04646 43.7266C6.34589 43.5582 6.53309 43.24 6.53309 42.9031V37.1573C6.53309 36.8204 6.72013 36.5022 7.01971 36.3338L9.02224 35.1734C9.17203 35.0798 9.34044 35.0422 9.50886 35.0422C9.67727 35.0422 9.84569 35.0798 9.97686 35.1734L11.9794 36.3338C12.279 36.5022 12.466 36.8203 12.466 37.1573V42.9031C12.466 43.24 12.6532 43.5582 12.9526 43.7266L17.6691 46.4217C17.8189 46.5153 18.0059 46.5153 18.1557 46.4217C18.3055 46.3468 18.3991 46.1783 18.3991 46.0099L18.3803 33.7323ZM56.5237 16.8316C56.374 16.7566 56.1868 16.7566 56.0556 16.8316C55.906 16.9252 55.8124 17.0749 55.8124 17.2433V29.4089C55.8124 29.5211 55.7564 29.6333 55.644 29.7083C55.5318 29.7643 55.4194 29.7643 55.3072 29.7083L53.3233 28.5666C53.1778 28.4838 53.0133 28.4403 52.846 28.4403C52.6786 28.4403 52.5141 28.4838 52.3686 28.5666L44.433 33.1521C44.1336 33.3205 43.9464 33.6387 43.9464 33.9755V43.1276C43.9464 43.4644 44.1336 43.7828 44.433 43.9512L52.3686 48.5366C52.5141 48.6195 52.6786 48.663 52.846 48.663C53.0133 48.663 53.1778 48.6195 53.3233 48.5366L61.2589 43.9512C61.5583 43.7828 61.7455 43.4646 61.7455 43.1276V20.3128C61.7455 19.9572 61.5583 19.6391 61.2589 19.4706L56.5237 16.8316ZM55.7938 40.1144C55.7938 40.208 55.7564 40.2828 55.6814 40.3202L52.9677 41.8923C52.9298 41.9108 52.8881 41.9204 52.846 41.9204C52.8038 41.9204 52.7622 41.9108 52.7243 41.8923L50.0105 40.3202C49.9355 40.2828 49.8981 40.1892 49.8981 40.1144V36.9701C49.8981 36.8765 49.9355 36.8016 50.0105 36.7642L52.7243 35.192C52.7622 35.1735 52.8038 35.1639 52.846 35.1639C52.8881 35.1639 52.9298 35.1735 52.9677 35.192L55.6814 36.7642C55.7564 36.8015 55.7938 36.8952 55.7938 36.9701V40.1144ZM82.932 36.8952C83.2316 36.7268 83.4 36.4086 83.4 36.0716V33.8445C83.4 33.5077 83.2128 33.1895 82.932 33.021L75.0526 28.4544C74.9072 28.3716 74.7427 28.3281 74.5754 28.3281C74.408 28.3281 74.2436 28.3716 74.0981 28.4544L66.1625 33.0397C65.8629 33.2081 65.6759 33.5263 65.6759 33.8633V43.0154C65.6759 43.3522 65.8629 43.6704 66.1625 43.8388L74.0419 48.3307C74.3415 48.4991 74.697 48.4991 74.9778 48.3307L79.7502 45.6733C79.9 45.5983 79.9936 45.4299 79.9936 45.2614C79.9936 45.093 79.9 44.9246 79.7502 44.8496L71.7772 40.2642C71.6276 40.1708 71.534 40.021 71.534 39.8526V36.989C71.534 36.8206 71.6276 36.6522 71.7772 36.5772L74.2665 35.1547C74.3394 35.1089 74.4238 35.0846 74.5098 35.0846C74.5959 35.0846 74.6803 35.1089 74.7532 35.1547L77.2423 36.5772C77.3921 36.6708 77.4857 36.8204 77.4857 36.989V39.2349C77.4857 39.4033 77.5793 39.5718 77.7289 39.6466C77.8787 39.7402 78.0658 39.7402 78.2156 39.6466L82.932 36.8952Z" fill="#474040"/>
<path id="Vector_3" d="M74.4537 36.4648C74.4815 36.4465 74.514 36.4368 74.5472 36.4368C74.5805 36.4368 74.613 36.4465 74.6407 36.4648L76.1568 37.3444C76.213 37.3817 76.2504 37.4379 76.2504 37.5129V39.2721C76.2504 39.347 76.213 39.4032 76.1568 39.4406L74.6407 40.3202C74.613 40.3385 74.5805 40.3482 74.5472 40.3482C74.514 40.3482 74.4815 40.3385 74.4537 40.3202L72.9376 39.4406C72.8815 39.4032 72.844 39.347 72.844 39.2721V37.5129C72.844 37.4379 72.8815 37.3817 72.9376 37.3444L74.4537 36.4648Z" fill="#539E43"/>
<g id="Group">
<path id="Vector_4" d="M31.65 28.4918C31.5045 28.409 31.3401 28.3655 31.1727 28.3655C31.0054 28.3655 30.8409 28.409 30.6955 28.4918L22.8161 33.0395C22.5165 33.2079 22.3481 33.5261 22.3481 33.863V42.9778C22.3481 43.3146 22.5353 43.6328 22.8161 43.8012L30.6955 48.3493C30.8409 48.4321 31.0054 48.4756 31.1727 48.4756C31.3401 48.4756 31.5045 48.4321 31.65 48.3493L39.5295 43.8012C39.829 43.6328 39.9975 43.3146 39.9975 42.9778V33.8631C39.9975 33.5263 39.8102 33.2081 39.5295 33.0397L31.65 28.4918Z" fill="#539E43"/>
</g>
</g>
</g>
</svg>
