<svg width="84" height="84" viewBox="0 0 84 84" fill="none" xmlns="http://www.w3.org/2000/svg">
<g id="Tech Icons">
<path id="Vector" d="M42 48.377C45.5726 48.377 48.4688 45.4808 48.4688 41.9082C48.4688 38.3356 45.5726 35.4395 42 35.4395C38.4274 35.4395 35.5313 38.3356 35.5313 41.9082C35.5313 45.4808 38.4274 48.377 42 48.377Z" fill="#00D8FF"/>
<path id="Vector_2" d="M42 56.7397C34.2249 56.9278 26.4693 55.8797 19.023 53.6347C15.5832 52.5443 12.375 50.8266 9.56052 48.5684C8.48653 47.7969 7.59214 46.8022 6.93872 45.6526C6.2853 44.503 5.88831 43.2256 5.77501 41.9081C5.77501 37.631 10.4739 33.4392 18.3451 30.6965C25.9905 28.2662 33.9786 27.0883 42 27.2085C49.9144 27.098 57.7955 28.2545 65.3444 30.6344C68.6572 31.6905 71.7566 33.3252 74.499 35.4627C75.5546 36.1981 76.4356 37.1568 77.0795 38.2706C77.7234 39.3845 78.1145 40.6263 78.225 41.9081C78.225 46.3535 72.9724 50.8583 64.5113 53.658C57.2091 55.8298 49.6172 56.8692 42 56.7397ZM42 30.3032C34.3258 30.2006 26.6841 31.3204 19.362 33.6204C12.117 36.1484 8.86966 39.6053 8.86966 41.9004C8.86966 44.3016 12.3602 48.0767 20.0244 50.6979C27.1479 52.8348 34.5651 53.8295 42 53.645C49.2875 53.7754 56.5519 52.7893 63.5409 50.7212C71.4975 48.0845 75.12 44.3042 75.12 41.9081C74.9894 41.0859 74.6898 40.2997 74.24 39.5991C73.7902 38.8985 73.2 38.2989 72.5066 37.838C70.053 35.9417 67.2843 34.493 64.3275 33.5583C57.1059 31.291 49.5684 30.1921 42 30.3032Z" fill="#00D8FF"/>
<path id="Vector_3" d="M27.303 74.1717C26.0959 74.1994 24.9031 73.9065 23.8461 73.323C20.1408 71.1857 18.8574 65.0223 20.4125 56.8328C22.1271 48.9956 25.0979 41.4872 29.21 34.5985C33.0673 27.6875 38.0054 21.4382 43.8371 16.0875C46.4069 13.745 49.3715 11.8764 52.5932 10.5683C53.7585 10.0222 55.0297 9.73914 56.3166 9.73914C57.6036 9.73914 58.8747 10.0222 60.0401 10.5683C63.8928 12.7884 65.1685 19.5884 63.3702 28.316C61.6026 35.7281 58.7089 42.8253 54.79 49.3601C51.0685 56.1895 46.2859 62.3844 40.6209 67.7133C37.9578 70.1476 34.8671 72.0679 31.5051 73.3773C30.1591 73.8769 28.7384 74.1454 27.303 74.1717ZM31.8906 36.1354C27.9682 42.7318 25.1209 49.9105 23.4554 57.4021C22.0245 64.9447 23.3985 69.4805 25.396 70.6346C27.466 71.8326 32.4909 70.6967 38.5923 65.3664C44.0002 60.2612 48.5651 54.3313 52.1171 47.7973C55.8714 41.5498 58.6472 34.7644 60.348 27.6769C62.0402 19.4616 60.5783 14.4315 58.5031 13.2361C57.7253 12.9381 56.8942 12.8046 56.0622 12.8443C55.2302 12.8839 54.4155 13.0957 53.6696 13.4663C50.8019 14.6497 48.1653 16.3298 45.8813 18.4292C40.3095 23.5545 35.5925 29.5371 31.9088 36.151L31.8906 36.1354Z" fill="#00D8FF"/>
<path id="Vector_4" d="M56.6892 74.2054C53.1832 74.2054 48.7301 72.0836 44.0933 68.0963C38.1594 62.6969 33.1378 56.3733 29.2229 49.3705C25.1625 42.5767 22.2151 35.1769 20.4927 27.4518C19.7457 24.0531 19.6073 20.5489 20.0839 17.1018C20.1941 15.8231 20.5834 14.5841 21.2245 13.4722C21.8656 12.3604 22.7429 11.4027 23.7944 10.6667C27.642 8.43887 34.1702 10.7288 40.833 16.6438C46.3718 21.8762 51.0754 27.9272 54.7797 34.5856C58.8376 41.2208 61.8159 48.4585 63.603 56.0282C64.3822 59.5516 64.5024 63.1888 63.9575 66.7559C63.8279 68.0714 63.4153 69.3434 62.7481 70.4845C62.0808 71.6256 61.1747 72.6089 60.0918 73.367C59.0521 73.9433 57.8777 74.2326 56.6892 74.2054ZM31.901 47.8129C35.6566 54.5053 40.4534 60.5572 46.1115 65.7416C51.9308 70.7485 56.5469 71.8249 58.5315 70.6579C60.6015 69.4547 62.1282 64.5436 60.555 56.5974C58.8314 49.3704 55.9748 42.4617 52.0913 36.1277C48.5563 29.755 44.0667 23.9609 38.7786 18.9467C32.5065 13.3784 27.4194 12.1338 25.3469 13.3344C24.7009 13.8594 24.1708 14.5126 23.79 15.2528C23.4092 15.9929 23.186 16.804 23.1345 17.6348C22.7231 20.709 22.8572 23.8317 23.5304 26.8593C25.1872 34.247 28.0139 41.3224 31.9036 47.818L31.901 47.8129Z" fill="#00D8FF"/>
</g>
</svg>
