<svg width="69" height="70" viewBox="0 0 69 70" fill="none" xmlns="http://www.w3.org/2000/svg">
<g id="Icon">
<g id="www">
<path d="M14.6513 40.9934L11.5499 33.2434C11.3959 32.9934 11.6159 32.7792 11.9678 32.7792H13.6835C13.8154 32.7792 14.0794 32.8684 14.1234 33.0292L15.663 36.9577H15.685L18.3465 32.7792C18.3905 32.6899 18.5005 32.6006 18.7424 32.6006H18.9404C19.1823 32.6006 19.2923 32.672 19.3583 32.7792L21.9977 36.9577H22.0197L23.5374 33.0292C23.6254 32.797 23.8453 32.7792 24.1093 32.7792H25.649C26.0009 32.7792 26.2208 32.9934 26.1109 33.2434L22.9875 40.9934C22.9435 41.1184 22.7676 41.2256 22.5256 41.2256H22.4376C22.2177 41.2256 22.1077 41.1363 22.0197 41.0292L18.8304 36.0649H18.8084L15.6191 41.0292C15.5531 41.1363 15.3991 41.2256 15.2231 41.2256H15.0912C14.8492 41.2256 14.6952 41.1184 14.6513 40.9934Z" fill="#FFC449"/>
<path d="M30.3316 40.9934L27.2302 33.2434C27.0763 32.9934 27.2962 32.7792 27.6481 32.7792H29.3638C29.4958 32.7792 29.7597 32.8684 29.8037 33.0292L31.3434 36.9577H31.3654L34.0268 32.7792C34.0708 32.6899 34.1808 32.6006 34.4227 32.6006H34.6207C34.8626 32.6006 34.9726 32.672 35.0386 32.7792L37.6781 36.9577H37.7L39.2177 33.0292C39.3057 32.797 39.5257 32.7792 39.7896 32.7792H41.3293C41.6812 32.7792 41.9012 32.9934 41.7912 33.2434L38.6678 40.9934C38.6239 41.1184 38.4479 41.2256 38.2059 41.2256H38.118C37.898 41.2256 37.788 41.1363 37.7 41.0292L34.5107 36.0649H34.4887L31.2994 41.0292C31.2334 41.1363 31.0794 41.2256 30.9035 41.2256H30.7715C30.5295 41.2256 30.3756 41.1184 30.3316 40.9934Z" fill="#FFC449"/>
<path d="M46.0119 40.9934L42.9106 33.2434C42.7566 32.9934 42.9765 32.7792 43.3285 32.7792H45.0441C45.1761 32.7792 45.44 32.8684 45.484 33.0292L47.0237 36.9577H47.0457L49.7071 32.7792C49.7511 32.6899 49.8611 32.6006 50.1031 32.6006H50.301C50.543 32.6006 50.6529 32.672 50.7189 32.7792L53.3584 36.9577H53.3804L54.8981 33.0292C54.986 32.797 55.206 32.7792 55.4699 32.7792H57.0096C57.3615 32.7792 57.5815 32.9934 57.4715 33.2434L54.3482 40.9934C54.3042 41.1184 54.1282 41.2256 53.8863 41.2256H53.7983C53.5783 41.2256 53.4683 41.1363 53.3804 41.0292L50.191 36.0649H50.169L46.9797 41.0292C46.9137 41.1363 46.7598 41.2256 46.5838 41.2256H46.4518C46.2099 41.2256 46.0559 41.1184 46.0119 40.9934Z" fill="#FFC449"/>
</g>
<path id="Vector" d="M43.125 66.3818H25.875C10.2638 66.3818 3.59375 59.7118 3.59375 44.1006V26.8506C3.59375 11.2393 10.2638 4.56934 25.875 4.56934H43.125C58.7362 4.56934 65.4062 11.2393 65.4062 26.8506V44.1006C65.4062 59.7118 58.7362 66.3818 43.125 66.3818ZM25.875 8.88184C12.6212 8.88184 7.90625 13.5968 7.90625 26.8506V44.1006C7.90625 57.3543 12.6212 62.0693 25.875 62.0693H43.125C56.3787 62.0693 61.0938 57.3543 61.0938 44.1006V26.8506C61.0938 13.5968 56.3787 8.88184 43.125 8.88184H25.875Z" fill="#FFC449"/>
</g>
</svg>
